<svg xmlns="http://www.w3.org/2000/svg" viewBox="0 0 400 300" width="406" height="306" class="illustration styles_illustrationTablet__1DWOa"><g id="_159_data_visualization_outline" data-name="#159_data_visualization_outline"><path d="M97.39,86.71H302.61a0,0,0,0,1,0,0V212.63a5.2,5.2,0,0,1-5.2,5.2H102.6a5.2,5.2,0,0,1-5.2-5.2V86.71A0,0,0,0,1,97.39,86.71Z" fill="#f7f7f7"></path><path d="M297.4,218.84H102.6a6.22,6.22,0,0,1-6.21-6.21V86.71a1,1,0,0,1,1-1H302.61a1,1,0,0,1,1,1V212.63A6.22,6.22,0,0,1,297.4,218.84ZM98.39,87.71V212.63a4.22,4.22,0,0,0,4.21,4.21H297.4a4.22,4.22,0,0,0,4.21-4.21V87.71Z" fill="#093f68"></path><path d="M273.8,147.82a5.17,5.17,0,0,1,0,8c-10.46,9.6-39.55,33.09-73.8,33.09s-63.34-23.49-73.8-33.09a5.17,5.17,0,0,1,0-8c10.46-9.6,39.55-33.09,73.8-33.09S263.34,138.22,273.8,147.82Z" fill="#f7f7f7"></path><path d="M200,189.93c-34.42,0-63.55-23.32-74.47-33.35a6.16,6.16,0,0,1,0-9.5c10.92-10,40.05-33.35,74.47-33.35s63.55,23.33,74.47,33.35h0a6.16,6.16,0,0,1,0,9.5C263.55,166.61,234.42,189.93,200,189.93Zm0-74.2c-33.72,0-62.37,23-73.12,32.83a4.17,4.17,0,0,0,0,6.55c10.75,9.87,39.4,32.82,73.12,32.82s62.37-23,73.12-32.82a4.17,4.17,0,0,0,0-6.55h0C262.37,138.69,233.72,115.73,200,115.73Z" fill="#093f68"></path><circle cx="200" cy="151.83" r="37.1" fill="#68e1fd"></circle><path d="M200,189.93a38.1,38.1,0,1,1,38.1-38.1A38.14,38.14,0,0,1,200,189.93Zm0-74.2a36.1,36.1,0,1,0,36.1,36.1A36.14,36.14,0,0,0,200,115.73Z" fill="#093f68"></path><circle cx="200" cy="151.83" r="18.1" fill="#093f68"></circle><path d="M200,170.93a19.1,19.1,0,1,1,19.1-19.1A19.12,19.12,0,0,1,200,170.93Zm0-36.2a17.1,17.1,0,1,0,17.1,17.1A17.12,17.12,0,0,0,200,134.73Z" fill="#093f68"></path><circle cx="211.39" cy="165.1" r="7.88" fill="#f7f7f7"></circle><path d="M211.39,174a8.88,8.88,0,1,1,8.87-8.87A8.88,8.88,0,0,1,211.39,174Zm0-15.75a6.88,6.88,0,1,0,6.87,6.88A6.89,6.89,0,0,0,211.39,158.22Z" fill="#093f68"></path><path d="M102.6,72.59H297.4a5.2,5.2,0,0,1,5.2,5.2v9.84a0,0,0,0,1,0,0H97.39a0,0,0,0,1,0,0V77.8A5.2,5.2,0,0,1,102.6,72.59Z" fill="#68e1fd"></path><path d="M302.61,88.64H97.39a1,1,0,0,1-1-1V77.8a6.22,6.22,0,0,1,6.21-6.21H297.4a6.22,6.22,0,0,1,6.21,6.21v9.84A1,1,0,0,1,302.61,88.64Zm-204.22-2H301.61V77.8a4.22,4.22,0,0,0-4.21-4.21H102.6a4.22,4.22,0,0,0-4.21,4.21Z" fill="#093f68"></path><circle cx="295.71" cy="120.02" r="26.99" fill="#f7f7f7"></circle><path d="M295.71,148a28,28,0,1,1,28-28A28,28,0,0,1,295.71,148Zm0-54a26,26,0,1,0,26,26A26,26,0,0,0,295.71,94Z" fill="#093f68"></path><path d="M295.71,120h27a27,27,0,1,1-16.25-24.77Z" fill="#ffbc0e"></path><path d="M295.71,148a28,28,0,1,1,11.13-53.67,1,1,0,0,1,.54.55,1,1,0,0,1,0,.76L297.24,119H322.7a1,1,0,0,1,1,1A28,28,0,0,1,295.71,148Zm0-54a26,26,0,1,0,26,27h-26a1,1,0,0,1-.92-1.4l10.33-23.83A25.77,25.77,0,0,0,295.71,94Z" fill="#093f68"></path><rect x="108.65" y="189.65" width="62.44" height="39.76" fill="#70cc40"></rect><path d="M171.08,230.41H108.65a1,1,0,0,1-1-1V189.65a1,1,0,0,1,1-1h62.43a1,1,0,0,1,1,1v39.76A1,1,0,0,1,171.08,230.41Zm-61.43-2h60.43V190.65H109.65Z" fill="#093f68"></path><path d="M164.52,222.2H119.24a1,1,0,0,1-1-1V198.3a1,1,0,0,1,2,0v21.9h44.28a1,1,0,1,1,0,2Z" fill="#093f68"></path><rect x="127.07" y="210.53" width="5.88" height="10.68" fill="#f7f7f7"></rect><path d="M133,222.2h-5.88a1,1,0,0,1-1-1V210.53a1,1,0,0,1,1-1H133a1,1,0,0,1,1,1V221.2A1,1,0,0,1,133,222.2Zm-4.88-2H132v-8.67h-3.88Z" fill="#093f68"></path><rect x="139.86" y="207.5" width="5.88" height="13.7" fill="#f7f7f7"></rect><path d="M145.75,222.2h-5.89a1,1,0,0,1-1-1V207.5a1,1,0,0,1,1-1h5.89a1,1,0,0,1,1,1v13.7A1,1,0,0,1,145.75,222.2Zm-4.89-2h3.89V208.5h-3.89Z" fill="#093f68"></path><rect x="152.66" y="198.3" width="5.88" height="22.9" fill="#f7f7f7"></rect><path d="M158.54,222.2h-5.88a1,1,0,0,1-1-1V198.3a1,1,0,0,1,1-1h5.88a1,1,0,0,1,1,1v22.9A1,1,0,0,1,158.54,222.2Zm-4.88-2h3.88V199.3h-3.88Z" fill="#093f68"></path><rect x="254.42" y="175.61" width="58.64" height="33.92" fill="#f56132"></rect><path d="M313.05,210.53H254.42a1,1,0,0,1-1-1V175.61a1,1,0,0,1,1-1h58.63a1,1,0,0,1,1,1v33.92A1,1,0,0,1,313.05,210.53Zm-57.63-2h56.63V176.61H255.42Z" fill="#093f68"></path><path d="M264.63,199.63a1,1,0,0,1-.77-.36,1,1,0,0,1,.13-1.41l14.74-12.25a1,1,0,0,1,1.25,0l12.1,9.31,12.62-10.35a1,1,0,0,1,1.27,1.54L292.73,197a1,1,0,0,1-1.24,0l-12.1-9.31L265.27,199.4A1,1,0,0,1,264.63,199.63Z" fill="#093f68"></path><circle cx="264.63" cy="198.63" r="3.61" fill="#f7f7f7"></circle><path d="M264.63,203.24a4.62,4.62,0,1,1,4.62-4.61A4.62,4.62,0,0,1,264.63,203.24Zm0-7.23a2.62,2.62,0,1,0,2.62,2.62A2.62,2.62,0,0,0,264.63,196Z" fill="#093f68"></path><circle cx="279.37" cy="186.38" r="3.61" fill="#f7f7f7"></circle><path d="M279.37,191a4.61,4.61,0,1,1,4.61-4.61A4.62,4.62,0,0,1,279.37,191Zm0-7.22a2.61,2.61,0,1,0,2.61,2.61A2.62,2.62,0,0,0,279.37,183.77Z" fill="#093f68"></path><circle cx="292.1" cy="196.18" r="3.61" fill="#f7f7f7"></circle><path d="M292.1,200.8a4.62,4.62,0,1,1,4.61-4.62A4.61,4.61,0,0,1,292.1,200.8Zm0-7.23a2.62,2.62,0,1,0,2.61,2.61A2.61,2.61,0,0,0,292.1,193.57Z" fill="#093f68"></path><circle cx="305.33" cy="185.32" r="3.61" fill="#f7f7f7"></circle><path d="M305.33,189.93a4.61,4.61,0,1,1,4.61-4.61A4.62,4.62,0,0,1,305.33,189.93Zm0-7.22a2.61,2.61,0,1,0,2.61,2.61A2.61,2.61,0,0,0,305.33,182.71Z" fill="#093f68"></path><circle cx="109.22" cy="80.1" r="2.94" fill="#093f68"></circle><circle cx="119.46" cy="80.1" r="2.94" fill="#093f68"></circle><circle cx="129.7" cy="80.1" r="2.94" fill="#093f68"></circle><rect x="90.93" y="95.35" width="46.4" height="35.9" rx="4.52" fill="#f7f7f7"></rect><path d="M132.82,132.25H95.45a5.53,5.53,0,0,1-5.52-5.52V99.86a5.52,5.52,0,0,1,5.52-5.51h37.37a5.51,5.51,0,0,1,5.51,5.51v26.87A5.52,5.52,0,0,1,132.82,132.25ZM95.45,96.35a3.52,3.52,0,0,0-3.52,3.51v26.87a3.53,3.53,0,0,0,3.52,3.52h37.37a3.52,3.52,0,0,0,3.51-3.52V99.86a3.51,3.51,0,0,0-3.51-3.51Z" fill="#093f68"></path><path d="M130.71,125.63H98a1,1,0,0,1-1-1V102.82a1,1,0,0,1,2,0v20.81h31.74a1,1,0,0,1,0,2Z" fill="#dfeaef"></path><path d="M100.83,120c1.91-3.79,3.87-7.9,7.26-10.33a6.6,6.6,0,0,1,6-1.19c2.66,1,4.76,4,7.86,2.67a13.3,13.3,0,0,0,6.61-7.46" fill="#f7f7f7"></path><path d="M100.83,121a1.06,1.06,0,0,1-.45-.11,1,1,0,0,1-.44-1.34l.27-.55c1.9-3.78,3.87-7.69,7.3-10.15a7.51,7.51,0,0,1,6.91-1.31A13.39,13.39,0,0,1,117.1,109c1.77,1.17,2.93,1.86,4.45,1.21,2.89-1.23,5.13-4.34,6.07-6.88a1,1,0,1,1,1.87.68,14.24,14.24,0,0,1-7.16,8c-2.59,1.1-4.58-.21-6.34-1.38a11.47,11.47,0,0,0-2.26-1.27,5.56,5.56,0,0,0-5,1.06c-3,2.17-4.89,5.86-6.68,9.42l-.28.55A1,1,0,0,1,100.83,121Z" fill="#093f68"></path><path d="M123,162.1H109.22a1,1,0,0,1,0-2H123a1,1,0,0,1,0,2Z" fill="#dfeaef"></path><path d="M128.41,170.93H109.22a1,1,0,1,1,0-2h19.19a1,1,0,1,1,0,2Z" fill="#dfeaef"></path><path d="M136.86,179.77H109.22a1,1,0,0,1,0-2h27.64a1,1,0,0,1,0,2Z" fill="#dfeaef"></path><path d="M258.5,98.58H157a1,1,0,0,1,0-2H258.5a1,1,0,0,1,0,2Z" fill="#dfeaef"></path><path d="M258.5,108.59H187.81a1,1,0,0,1,0-2H258.5a1,1,0,0,1,0,2Z" fill="#dfeaef"></path><path d="M243.29,210.53H181.9a1,1,0,0,1-1-1V196.8a1,1,0,0,1,1-1h61.39a1,1,0,0,1,1,1v12.73A1,1,0,0,1,243.29,210.53Zm-60.39-2h59.39V197.8H182.9Z" fill="#dfeaef"></path><path d="M203.51,210.75a1,1,0,0,1-1-1V196.8a1,1,0,0,1,2,0v12.95A1,1,0,0,1,203.51,210.75Z" fill="#dfeaef"></path><path d="M235.18,210.75a1,1,0,0,1-1-1V196.8a1,1,0,0,1,2,0v12.95A1,1,0,0,1,235.18,210.75Z" fill="#dfeaef"></path></g></svg>